<?xml version="1.0" encoding="UTF-8"?> <svg xmlns="http://www.w3.org/2000/svg" width="59" height="59" viewBox="0 0 59 59" fill="none"> <g clip-path="url(#clip0)"> <path d="M45.7338 37.5029C45.2559 37.5029 44.8687 37.8901 44.8687 38.368V41.753C43.8125 42.1137 43.0505 43.1154 43.0505 44.2922C43.0505 45.7717 44.2543 46.9754 45.7338 46.9754C46.1584 46.9754 46.5602 46.8758 46.9175 46.6994L49.7953 49.5772C49.9643 49.7461 50.1857 49.8305 50.4071 49.8305C50.6284 49.8305 50.8499 49.7461 51.0189 49.5772C51.3567 49.2393 51.3567 48.6916 51.0189 48.3538L48.1411 45.476C48.3174 45.1186 48.4171 44.717 48.4171 44.2923C48.4171 43.1155 47.6551 42.1139 46.5989 41.7531V38.3681C46.5988 37.8901 46.2116 37.5029 45.7338 37.5029ZM46.6868 44.2922C46.6868 44.8177 46.2593 45.2453 45.7338 45.2453C45.2082 45.2453 44.7807 44.8177 44.7807 44.2922C44.7807 43.7667 45.2082 43.3391 45.7338 43.3391C46.2593 43.3391 46.6868 43.7667 46.6868 44.2922Z" fill="#CEC4B1"></path> <path d="M22.1533 19.2394C21.7091 19.0624 21.2063 19.2796 21.0297 19.7234L18.0661 27.1749C17.8895 27.6189 18.1064 28.1219 18.5502 28.2984C18.6552 28.3401 18.7632 28.3598 18.8697 28.3598C19.2137 28.3598 19.5389 28.1533 19.6739 27.8143L22.6375 20.3628C22.814 19.9189 22.5972 19.4158 22.1533 19.2394Z" fill="#CEC4B1"></path> <path d="M25.5265 28.2871C25.6398 28.3369 25.7579 28.3604 25.8742 28.3604C26.2068 28.3604 26.5241 28.1674 26.6666 27.8434L29.9422 20.3919C30.0599 20.1244 30.0344 19.8155 29.8746 19.5709C29.7149 19.3262 29.4424 19.1787 29.1503 19.1787H25.0511C24.5734 19.1787 24.186 19.5659 24.186 20.0438C24.186 20.5216 24.5734 20.9088 25.0511 20.9088H27.825L25.0828 27.147C24.8904 27.5843 25.0892 28.0948 25.5265 28.2871Z" fill="#CEC4B1"></path> <path d="M14.6423 28.1548C15.12 28.1548 15.5074 27.7676 15.5074 27.2897V25.7018H15.9745C16.4522 25.7018 16.8396 25.3146 16.8396 24.8367C16.8396 24.3589 16.4522 23.9717 15.9745 23.9717H15.5074V20.053C15.5074 19.5084 15.156 19.0407 14.6331 18.8889C14.1103 18.7375 13.5637 18.9441 13.2724 19.4039C12.2027 21.0924 10.2288 24.3565 10.209 24.3892C10.0475 24.6563 10.0424 24.9898 10.1958 25.2617C10.3492 25.5335 10.6371 25.7017 10.9494 25.7017H13.7772V27.2896C13.7772 27.7676 14.1645 28.1548 14.6423 28.1548ZM12.4867 23.9717C12.8644 23.3514 13.3302 22.5893 13.7772 21.8645V23.9717H12.4867Z" fill="#CEC4B1"></path> <path d="M7.47342 23.1248C6.29347 24.8107 5.5893 25.7327 5.21098 26.228C4.73981 26.8451 4.52469 27.1267 4.67187 27.605C4.75838 27.8864 4.97153 28.1024 5.25654 28.1973C5.37119 28.2356 5.48123 28.2721 6.93616 28.2721C7.50456 28.2721 8.2784 28.2665 9.33793 28.2532C9.81568 28.2472 10.198 27.8552 10.192 27.3774C10.186 26.9034 9.79999 26.5232 9.32721 26.5232C9.32352 26.5232 9.31982 26.5232 9.31613 26.5233C8.57886 26.5326 7.7973 26.5387 7.14447 26.5402C7.5567 25.9885 8.1258 25.21 8.89087 24.1169C9.3685 23.4344 9.68015 22.789 9.81707 22.1987C9.82364 22.1704 9.82883 22.1417 9.83241 22.1129L9.8692 21.8246C9.87393 21.7884 9.87624 21.7516 9.87624 21.715C9.87624 20.1868 8.63284 18.9434 7.10456 18.9434C5.78308 18.9434 4.63923 19.8834 4.38478 21.1788C4.29274 21.6476 4.59805 22.1022 5.06692 22.1944C5.5359 22.2863 5.99035 21.9813 6.08251 21.5123C6.17801 21.0263 6.60778 20.6736 7.10456 20.6736C7.66316 20.6736 8.12049 21.1156 8.14506 21.6683L8.12222 21.8465C8.02972 22.2118 7.81161 22.6416 7.47342 23.1248Z" fill="#CEC4B1"></path> <path d="M12.5996 32.5001C12.5996 31.6036 11.8701 30.874 10.9735 30.874H7.17615C6.27959 30.874 5.55005 31.6034 5.55005 32.5001V36.2974C5.55005 37.194 6.27947 37.9235 7.17615 37.9235H10.9735C11.87 37.9235 12.5996 37.1941 12.5996 36.2974V32.5001ZM10.8694 36.1933H7.2803V32.6042H10.8695V36.1933H10.8694Z" fill="#CEC4B1"></path> <path d="M21.6511 32.5001C21.6511 31.6036 20.9216 30.874 20.025 30.874H16.2277C15.3311 30.874 14.6016 31.6034 14.6016 32.5001V36.2974C14.6016 37.194 15.331 37.9235 16.2277 37.9235H20.025C20.9215 37.9235 21.6511 37.1941 21.6511 36.2974V32.5001ZM19.9209 36.1933H16.3317V32.6042H19.9209V36.1933Z" fill="#CEC4B1"></path> <path d="M30.7027 32.5001C30.7027 31.6036 29.9733 30.874 29.0767 30.874H25.2794C24.3829 30.874 23.6533 31.6034 23.6533 32.5001V36.2974C23.6533 37.194 24.3827 37.9235 25.2794 37.9235H29.0767C29.9733 37.9235 30.7027 37.1941 30.7027 36.2974V32.5001ZM28.9726 36.1933H25.3835V32.6042H28.9726V36.1933Z" fill="#CEC4B1"></path> <path d="M37.83 26.3278V22.5304C37.83 21.6338 37.1006 20.9043 36.2039 20.9043H32.4066C31.5101 20.9043 30.7805 21.6337 30.7805 22.5304V26.3278C30.7805 27.2244 31.5099 27.9539 32.4066 27.9539H36.2039C37.1006 27.9539 37.83 27.2245 37.83 26.3278ZM36.0999 26.2238H32.5108V22.6345H36.0999V26.2238Z" fill="#CEC4B1"></path> <path d="M41.4061 20.9043C40.5096 20.9043 39.78 21.6337 39.78 22.5304V26.3278C39.78 27.2244 40.5095 27.9539 41.4061 27.9539H45.2034C46.1 27.9539 46.8295 27.2245 46.8295 26.3278V22.5304C46.8295 21.6338 46.1001 20.9043 45.2034 20.9043H41.4061ZM45.0993 26.2237H41.5102V22.6344H45.0993V26.2237Z" fill="#CEC4B1"></path> <path d="M7.17615 46.4431H10.9735C11.87 46.4431 12.5996 45.7136 12.5996 44.817V41.0197C12.5996 40.1231 11.8701 39.3936 10.9735 39.3936H7.17615C6.27959 39.3936 5.55005 40.123 5.55005 41.0197V44.817C5.55016 45.7135 6.27959 46.4431 7.17615 46.4431ZM7.2803 41.1237H10.8695V44.7128H7.2803V41.1237Z" fill="#CEC4B1"></path> <path d="M16.2277 46.4431H20.025C20.9215 46.4431 21.6511 45.7136 21.6511 44.817V41.0197C21.6511 40.1231 20.9216 39.3936 20.025 39.3936H16.2277C15.3311 39.3936 14.6016 40.123 14.6016 41.0197V44.817C14.6017 45.7135 15.3311 46.4431 16.2277 46.4431ZM16.3318 41.1237H19.921V44.7128H16.3318V41.1237Z" fill="#CEC4B1"></path> <path d="M29.0767 39.3936H25.2794C24.3829 39.3936 23.6533 40.123 23.6533 41.0197V44.817C23.6533 45.7135 24.3827 46.4431 25.2794 46.4431H29.0767C29.9733 46.4431 30.7027 45.7136 30.7027 44.817V41.0197C30.7027 40.1231 29.9733 39.3936 29.0767 39.3936ZM28.9726 44.7129H25.3835V41.1238H28.9726V44.7129Z" fill="#CEC4B1"></path> <path d="M30.7988 48.769H5.97855C3.63594 48.769 1.73014 46.8632 1.73014 44.5207V37.367C1.73014 36.8892 1.34282 36.502 0.865069 36.502C0.38732 36.502 0 36.8892 0 37.367V44.5207C0 47.8172 2.68194 50.4991 5.97855 50.4991H30.7988C31.2766 50.4991 31.6638 50.1119 31.6638 49.634C31.6638 49.1562 31.2766 48.769 30.7988 48.769Z" fill="#CEC4B1"></path> <path d="M0.865069 34.5452C1.34282 34.5452 1.73014 34.158 1.73014 33.6801V16.3259H40.6452C41.1231 16.3259 41.5103 15.9387 41.5103 15.4609C41.5103 14.983 41.1231 14.5958 40.6452 14.5958H1.73014V11.7267C1.73014 9.38406 3.63594 7.47837 5.97855 7.47837H12.0021V9.32304C12.0021 10.6577 13.0879 11.7435 14.4225 11.7435C15.7572 11.7435 16.843 10.6577 16.843 9.32304V7.47837H34.2159V9.32304C34.2159 10.6577 35.3016 11.7435 36.6362 11.7435C37.9709 11.7435 39.0567 10.6577 39.0567 9.32304V7.47837H45.0802C47.4228 7.47837 49.3286 9.38406 49.3286 11.7267V14.5958H44.3318C43.8539 14.5958 43.4667 14.983 43.4667 15.4609C43.4667 15.9387 43.8539 16.3259 44.3318 16.3259H49.3286V29.0701C49.3286 29.548 49.7159 29.9352 50.1937 29.9352C50.6716 29.9352 51.0588 29.548 51.0588 29.0701V11.7267C51.0588 8.43018 48.3768 5.74823 45.0802 5.74823H39.0567V3.86285C39.0567 2.52822 37.9709 1.44238 36.6362 1.44238C35.3016 1.44238 34.2159 2.52822 34.2159 3.86285V5.74835H16.843V3.86285C16.843 2.52822 15.7572 1.44238 14.4225 1.44238C13.0879 1.44238 12.0021 2.52822 12.0021 3.86285V5.74835H5.97855C2.68194 5.74823 0 8.43018 0 11.7267V33.6801C0 34.158 0.38732 34.5452 0.865069 34.5452ZM35.946 3.86285C35.946 3.4821 36.2557 3.17252 36.6362 3.17252C37.017 3.17252 37.3266 3.48221 37.3266 3.86285V9.32316C37.3266 9.7039 37.0169 10.0135 36.6362 10.0135C36.2556 10.0135 35.946 9.70379 35.946 9.32316V3.86285ZM13.7322 3.86285C13.7322 3.4821 14.0419 3.17252 14.4225 3.17252C14.8032 3.17252 15.1129 3.48221 15.1129 3.86285V9.32316C15.1129 9.7039 14.8032 10.0135 14.4225 10.0135C14.0419 10.0135 13.7322 9.70379 13.7322 9.32316V3.86285Z" fill="#CEC4B1"></path> <path d="M58.5304 40.7853C58.4042 40.3246 57.9289 40.0531 57.4678 40.179C57.007 40.3051 56.7355 40.7809 56.8615 41.2417C57.0567 41.9552 57.1814 42.6874 57.2365 43.4273H55.8666C55.3887 43.4273 55.0015 43.8145 55.0015 44.2924C55.0015 44.7702 55.3887 45.1574 55.8666 45.1574H57.2374C57.0489 47.6889 56.0397 49.9951 54.4758 51.8111L53.5104 50.8457C53.1725 50.5078 52.6248 50.5077 52.2871 50.8456C51.9491 51.1834 51.9491 51.7312 52.2869 52.0689L53.2524 53.0344C51.4365 54.5983 49.1301 55.6075 46.5987 55.7961V54.425C46.5987 53.9471 46.2115 53.5599 45.7336 53.5599C45.2558 53.5599 44.8686 53.9471 44.8686 54.425V55.7961C42.3372 55.6075 40.0309 54.5983 38.215 53.0344L39.1806 52.0689C39.5184 51.7309 39.5184 51.1833 39.1806 50.8454C38.8426 50.5077 38.295 50.5077 37.9571 50.8454L36.9916 51.811C35.4278 49.9951 34.4185 47.6889 34.23 45.1574H35.6009C36.0788 45.1574 36.466 44.7702 36.466 44.2924C36.466 43.8145 36.0788 43.4273 35.6009 43.4273H34.23C34.4185 40.8959 35.4277 38.5895 36.9916 36.7737L37.9571 37.7392C38.126 37.908 38.3475 37.9925 38.5688 37.9925C38.7901 37.9925 39.0116 37.908 39.1806 37.7391C39.5184 37.4012 39.5184 36.8535 39.1805 36.5157L38.215 35.5503C40.0309 33.9864 42.3373 32.9773 44.8687 32.7887V34.1596C44.8687 34.6375 45.2559 35.0247 45.7338 35.0247C46.2116 35.0247 46.5988 34.6375 46.5988 34.1596V32.7896C49.0869 32.9737 51.4079 33.9474 53.2586 35.5441L52.2869 36.5157C51.9491 36.8537 51.9491 37.4013 52.2869 37.7392C52.4559 37.908 52.6774 37.9925 52.8987 37.9925C53.1201 37.9925 53.3415 37.908 53.5105 37.7392L54.4801 36.7696C54.8383 37.1873 55.1708 37.6326 55.4722 38.106C55.7289 38.509 56.2633 38.6276 56.6665 38.371C57.0695 38.1144 57.1881 37.5798 56.9315 37.1768C54.4795 33.3255 50.2934 31.0264 45.7338 31.0264C38.4187 31.0264 32.4675 36.9776 32.4675 44.2926C32.4675 51.6076 38.4187 57.5586 45.7338 57.5586C53.0488 57.5586 59 51.6074 59 44.2924C59 43.1046 58.842 41.9246 58.5304 40.7853Z" fill="#CEC4B1"></path> </g> <defs> <clipPath id="clip0"> <rect width="59" height="59" fill="white"></rect> </clipPath> </defs> </svg> 