<?xml version="1.0" encoding="UTF-8"?> <svg xmlns="http://www.w3.org/2000/svg" width="59" height="59" viewBox="0 0 59 59" fill="none"> <g clip-path="url(#clip0)"> <path d="M47.6609 25.9701H46.2417V20.1208C46.2417 20.0149 46.2209 19.9099 46.1804 19.812C46.1399 19.7142 46.0805 19.6252 46.0056 19.5503C45.9306 19.4754 45.8417 19.416 45.7438 19.3754C45.6459 19.3349 45.541 19.3141 45.435 19.3142H42.3929C42.6268 18.7317 42.7436 18.1089 42.7367 17.4813C42.7298 16.8537 42.5994 16.2336 42.3528 15.6564C42.1062 15.0792 41.7483 14.5563 41.2995 14.1174C40.8508 13.6786 40.32 13.3325 39.7374 13.0989C39.8545 12.6803 39.9136 12.2476 39.913 11.8129C39.9121 10.5733 39.4318 9.38221 38.5727 8.48872C37.7136 7.59523 36.5422 7.06863 35.3036 7.01912C33.6696 1.81422 28.768 0.365495 28.5523 0.30419C28.4093 0.263545 28.2579 0.263183 28.1148 0.303143C27.9716 0.343103 27.8423 0.421832 27.7411 0.530643C27.6399 0.639453 27.5707 0.774115 27.5411 0.919767C27.5116 1.06542 27.5229 1.2164 27.5737 1.35605C27.9807 2.47474 27.3031 4.52499 25.7115 7.01728H24.5882C23.8669 7.01703 23.1548 7.17957 22.505 7.49278C21.8552 7.806 21.2845 8.26182 20.8354 8.82628C20.3862 9.39074 20.0703 10.0493 19.911 10.7528C19.7518 11.4564 19.7534 12.1868 19.9157 12.8896C19.2497 13.0512 18.6262 13.3541 18.0876 13.7779C17.549 14.2017 17.1078 14.7363 16.7941 15.3456C16.4803 15.9549 16.3013 16.6246 16.2692 17.3092C16.2371 17.9938 16.3527 18.6773 16.608 19.3132H13.5658C13.3519 19.3132 13.1467 19.3982 12.9954 19.5495C12.8442 19.7008 12.7592 19.906 12.7592 20.1199V25.9692H11.339C10.1903 25.9704 9.08892 26.4273 8.27662 27.2396C7.46433 28.0519 7.00745 29.1532 7.00623 30.302V52.1191C7.00818 54.0157 7.76244 55.8341 9.1035 57.1752C10.4446 58.5164 12.2629 59.2707 14.1595 59.2728H44.8381C46.7348 59.2707 48.5533 58.5164 49.8945 57.1753C51.2357 55.8341 51.9901 54.0158 51.9923 52.1191V30.3029C51.991 29.1544 51.5343 28.0534 50.7223 27.2411C49.9103 26.4289 48.8094 25.9718 47.6609 25.9701ZM17.877 17.5437C17.8802 16.7083 18.2108 15.9074 18.7977 15.3128C19.3846 14.7182 20.1811 14.3773 21.0164 14.3632C21.1523 14.3613 21.2854 14.325 21.4035 14.2579C21.5216 14.1908 21.6208 14.0949 21.692 13.9792C21.7632 13.8635 21.8041 13.7318 21.8108 13.5961C21.8175 13.4604 21.7899 13.3252 21.7304 13.2031C21.5176 12.7702 21.4072 12.2943 21.4078 11.8119C21.4092 10.9689 21.7448 10.1608 22.3409 9.56464C22.937 8.9685 23.7452 8.63295 24.5882 8.63148H26.1485C26.2817 8.63151 26.4129 8.59851 26.5302 8.53545C26.6476 8.47239 26.7475 8.38122 26.821 8.27011C28.3882 5.90412 29.2179 3.9207 29.2972 2.34845C30.4317 2.90233 31.432 3.6966 32.2287 4.67606C33.0253 5.65552 33.5991 6.79669 33.9102 8.02028C33.9539 8.19501 34.0547 8.35012 34.1967 8.46088C34.3387 8.57165 34.5137 8.6317 34.6938 8.63148H35.1183C35.9614 8.63295 36.7695 8.9685 37.3657 9.56464C37.9618 10.1608 38.2973 10.9689 38.2988 11.8119C38.2978 12.1538 38.241 12.4932 38.1306 12.8168H29.5C29.286 12.8168 29.0809 12.9018 28.9296 13.0531C28.7783 13.2043 28.6933 13.4095 28.6933 13.6234C28.6933 13.8374 28.7783 14.0425 28.9296 14.1938C29.0809 14.3451 29.286 14.4301 29.5 14.4301H38.5703C39.0827 14.5323 39.562 14.7595 39.9655 15.0915C40.369 15.4235 40.6843 15.8499 40.8834 16.3331C41.0825 16.8162 41.1593 17.341 41.1068 17.8609C41.0544 18.3807 40.8744 18.8796 40.5828 19.3132H18.4172C18.0655 18.7901 17.8775 18.1741 17.877 17.5437ZM14.3739 20.9274H44.6266V25.9701H14.3729L14.3739 20.9274ZM50.3804 52.12C50.3787 53.589 49.7944 54.9973 48.7556 56.036C47.7169 57.0747 46.3085 57.6589 44.8395 57.6605H14.1614C12.6922 57.6592 11.2835 57.0752 10.2445 56.0364C9.20552 54.9977 8.62109 53.5892 8.61951 52.12V30.3029C8.62024 29.5819 8.907 28.8906 9.41685 28.3807C9.9267 27.8709 10.618 27.5841 11.339 27.5834H47.6609C48.3819 27.5842 49.0731 27.871 49.583 28.3809C50.0928 28.8907 50.3796 29.5819 50.3804 30.3029V52.12Z" fill="#CEC4B1"></path> <path d="M46.5763 30.5791H12.4241C12.3181 30.579 12.2132 30.5999 12.1153 30.6404C12.0174 30.6809 11.9285 30.7403 11.8536 30.8152C11.7786 30.8901 11.7192 30.9791 11.6787 31.077C11.6382 31.1749 11.6174 31.2798 11.6174 31.3857V52.1196C11.6182 52.7941 11.8864 53.4408 12.3633 53.9178C12.8402 54.3948 13.4868 54.6632 14.1613 54.664H44.8381C45.5127 54.6633 46.1595 54.395 46.6366 53.918C47.1137 53.441 47.3821 52.7943 47.383 52.1196V31.3857C47.383 31.2798 47.3622 31.1749 47.3217 31.077C47.2812 30.9791 47.2217 30.8901 47.1468 30.8152C47.0719 30.7403 46.983 30.6809 46.8851 30.6404C46.7872 30.5999 46.6823 30.579 46.5763 30.5791ZM45.7711 52.1196C45.7708 52.3666 45.6726 52.6033 45.4979 52.7779C45.3233 52.9525 45.0864 53.0506 44.8395 53.0507H14.1613C13.9145 53.0505 13.6779 52.9523 13.5034 52.7777C13.3289 52.6031 13.2308 52.3665 13.2307 52.1196V32.1924H45.7711V52.1196Z" fill="#CEC4B1"></path> <path d="M36.3243 39.0411C36.0206 38.8854 35.6891 38.7915 35.3488 38.7648C35.0086 38.738 34.6665 38.779 34.3422 38.8854C33.5012 39.1591 32.6819 39.4957 31.8914 39.8925C32.0245 39.0182 32.0915 38.1352 32.0919 37.2509C32.0919 36.5627 31.8186 35.9028 31.332 35.4162C30.8454 34.9296 30.1854 34.6563 29.4973 34.6562C28.8092 34.6563 28.1492 34.9296 27.6626 35.4162C27.1761 35.9028 26.9027 36.5627 26.9027 37.2509C26.9031 38.1352 26.9701 39.0182 27.1032 39.8925C26.3127 39.4958 25.4935 39.1593 24.6524 38.8858C24.327 38.7758 23.9831 38.7315 23.6405 38.7554C23.2979 38.7794 22.9634 38.8711 22.6565 39.0252C22.3496 39.1794 22.0764 39.393 21.8527 39.6536C21.629 39.9142 21.4592 40.2166 21.3533 40.5432C21.2473 40.8699 21.2072 41.2144 21.2354 41.5567C21.2636 41.899 21.3595 42.2323 21.5175 42.5372C21.6755 42.8422 21.8924 43.1127 22.1557 43.3332C22.4191 43.5537 22.7236 43.7196 23.0516 43.8215C23.8935 44.0944 24.7548 44.3035 25.6282 44.447C25.0065 45.0762 24.4332 45.7514 23.913 46.4669C23.512 47.0237 23.3479 47.7168 23.4567 48.3944C23.5655 49.072 23.9383 49.6789 24.4935 50.0822C25.0487 50.4856 25.7411 50.6526 26.4191 50.5466C27.0972 50.4406 27.7056 50.0704 28.1113 49.5169C28.6301 48.801 29.0943 48.047 29.5001 47.2615C29.9064 48.0472 30.3714 48.8011 30.8912 49.5169C31.2969 50.0704 31.9053 50.4406 32.5833 50.5466C33.2614 50.6526 33.9537 50.4856 34.509 50.0822C35.0642 49.6789 35.437 49.072 35.5457 48.3944C35.6545 47.7168 35.4904 47.0237 35.0894 46.4669C34.5684 45.7514 33.9943 45.0762 33.372 44.447C34.2447 44.3034 35.1054 44.0943 35.9468 43.8215C36.4348 43.6629 36.8648 43.363 37.1825 42.96C37.5001 42.557 37.6912 42.0688 37.7314 41.5572C37.7717 41.0456 37.6593 40.5336 37.4086 40.0858C37.1579 39.638 36.7801 39.2747 36.3229 39.0416L36.3243 39.0411ZM28.9405 41.5947C29.0684 41.5481 29.2021 41.5191 29.3378 41.5085C29.6777 41.4768 30.0191 41.5487 30.3174 41.7146C30.6156 41.8806 30.8567 42.1329 31.0088 42.4384C31.161 42.744 31.2171 43.0884 31.1699 43.4264C31.1227 43.7644 30.9743 44.0803 30.7442 44.3324C30.5142 44.5845 30.2132 44.7611 29.8809 44.839C29.5486 44.9169 29.2005 44.8924 28.8824 44.7687C28.5642 44.6451 28.291 44.4281 28.0985 44.1462C27.906 43.8644 27.8033 43.5309 27.8038 43.1896C27.8043 43.0691 27.8178 42.949 27.8439 42.8314C27.9243 42.4853 28.1082 42.172 28.3712 41.9331C28.5016 41.8144 28.6497 41.7168 28.8101 41.6436C28.8548 41.6224 28.8967 41.61 28.9405 41.5952V41.5947ZM29.5001 36.27C29.7603 36.2702 30.0097 36.3737 30.1937 36.5577C30.3777 36.7417 30.4812 36.9911 30.4814 37.2513C30.4819 38.1611 30.4048 39.0692 30.2509 39.9658C29.7579 39.8534 29.2459 39.8534 28.7529 39.9658C28.5993 39.0691 28.5222 38.161 28.5224 37.2513C28.5227 36.9918 28.6256 36.7429 28.8088 36.559C28.992 36.3751 29.2405 36.2712 29.5001 36.27ZM22.9197 41.0504C22.9593 40.9276 23.0227 40.8139 23.1064 40.7157C23.19 40.6176 23.2922 40.5369 23.4072 40.4784C23.5221 40.4199 23.6474 40.3847 23.776 40.3748C23.9046 40.3649 24.0339 40.3805 24.1564 40.4207C25.0213 40.7022 25.8607 41.0568 26.6653 41.4809C26.4053 41.9147 26.2476 42.4022 26.2044 42.9061C25.3042 42.7759 24.4168 42.5693 23.5517 42.2885C23.4289 42.2487 23.3151 42.1851 23.2169 42.1013C23.1187 42.0176 23.0379 41.9153 22.9792 41.8003C22.9205 41.6854 22.8851 41.5599 22.8749 41.4313C22.8647 41.3026 22.8799 41.1732 22.9197 41.0504ZM26.8036 48.5683C26.648 48.7713 26.4192 48.9055 26.1661 48.9423C25.9129 48.9792 25.6554 48.9157 25.4484 48.7654C25.2414 48.6152 25.1012 48.3901 25.0577 48.138C25.0142 47.8859 25.0709 47.6268 25.2157 47.4159C25.7514 46.6793 26.3488 45.9896 27.0013 45.3542C27.3266 45.7418 27.7412 46.0445 28.2095 46.2364C27.8078 47.0521 27.3375 47.8322 26.8036 48.5683ZM33.566 48.7858C33.4618 48.8616 33.3436 48.916 33.2183 48.9461C33.093 48.9761 32.963 48.9812 32.8358 48.961C32.7085 48.9408 32.5865 48.8957 32.4766 48.8283C32.3668 48.7609 32.2713 48.6726 32.1956 48.5683C31.6611 47.8323 31.1902 47.0522 30.7879 46.2364C31.2474 46.0279 31.6593 45.7273 31.9979 45.3532C32.6506 45.9885 33.248 46.6783 33.7836 47.415C33.9361 47.6258 33.9988 47.8884 33.958 48.1454C33.9172 48.4023 33.7763 48.6326 33.566 48.7858ZM35.4494 42.2866C34.5843 42.5673 33.6968 42.7739 32.7967 42.9043C32.7464 42.4018 32.5892 41.9159 32.3358 41.479C33.1406 41.0551 33.9801 40.7005 34.8451 40.4189C34.9677 40.3791 35.0969 40.3638 35.2254 40.374C35.3539 40.3841 35.4791 40.4194 35.5939 40.478C35.7087 40.5365 35.8109 40.6171 35.8946 40.7151C35.9782 40.8131 36.0418 40.9267 36.0816 41.0492C36.1214 41.1718 36.1366 41.301 36.1265 41.4295C36.1164 41.558 36.081 41.6832 36.0225 41.798C35.964 41.9128 35.8834 42.015 35.7854 42.0987C35.6874 42.1823 35.5738 42.2459 35.4512 42.2857L35.4494 42.2866Z" fill="#CEC4B1"></path> </g> <defs> <clipPath id="clip0"> <rect width="59" height="59" fill="white"></rect> </clipPath> </defs> </svg> 