<?xml version="1.0" encoding="UTF-8"?> <svg xmlns="http://www.w3.org/2000/svg" width="59" height="59" viewBox="0 0 59 59" fill="none"> <g clip-path="url(#clip0)"> <path d="M57.3199 36.4947C56.8035 36.1503 56.2099 35.9392 55.592 35.88C54.9742 35.8209 54.3513 35.9157 53.779 36.1559L51.1641 37.2507V25.2806C51.1631 24.4557 50.835 23.6649 50.2517 23.0816C49.6684 22.4983 48.8776 22.1702 48.0527 22.1692H47.4047V18.626C47.4047 18.4121 47.3197 18.2069 47.1684 18.0556C47.0171 17.9044 46.812 17.8194 46.598 17.8194H44.9981C45.2028 17.0555 45.1353 16.2442 44.8073 15.5245C44.4794 14.8049 43.9113 14.2218 43.2004 13.8751C43.2462 13.6514 43.269 13.4236 43.2687 13.1953C43.2676 12.3471 42.9512 11.5296 42.3811 10.9016C41.811 10.2736 41.0277 9.88001 40.1836 9.79722C39.81 8.76782 39.2067 7.83714 38.4194 7.07597C37.6321 6.31479 36.6816 5.74314 35.6401 5.40448C35.4973 5.36406 35.346 5.36387 35.203 5.40392C35.06 5.44398 34.9308 5.52273 34.8297 5.63151C34.7286 5.74028 34.6595 5.87485 34.63 6.02039C34.6005 6.16593 34.6117 6.31679 34.6625 6.45634C34.8888 7.07815 34.4758 8.30516 33.5535 9.78155H32.9732C32.0681 9.78252 31.2004 10.1425 30.5604 10.7825C29.9204 11.4225 29.5604 12.2902 29.5595 13.1953C29.5593 13.365 29.5719 13.5345 29.5973 13.7023C28.9168 13.9292 28.3246 14.3639 27.9041 14.945C27.4835 15.5261 27.2558 16.2244 27.2529 16.9418C27.253 17.2383 27.2921 17.5335 27.3691 17.8198H25.7692C25.5552 17.8198 25.3501 17.9048 25.1988 18.0561C25.0475 18.2074 24.9625 18.4125 24.9625 18.6265V22.1711H24.3145C23.4899 22.1721 22.6994 22.4999 22.1161 23.0828C21.5329 23.6657 21.2046 24.456 21.2031 25.2806V32.5219C20.197 31.5441 18.8486 30.9982 17.4456 31.0008H9.44922V29.1796C9.4491 28.9657 9.36407 28.7606 9.21282 28.6094C9.06158 28.4581 8.85647 28.3731 8.64258 28.373H0.806641C0.592744 28.3731 0.387642 28.4581 0.236394 28.6094C0.0851465 28.7606 0.000122122 28.9657 0 29.1796L0 51.784C0.000122122 51.9979 0.0851465 52.203 0.236394 52.3543C0.387642 52.5055 0.592744 52.5905 0.806641 52.5907H8.64258C8.85647 52.5905 9.06158 52.5055 9.21282 52.3543C9.36407 52.203 9.4491 51.9979 9.44922 51.784V48.675H17.9226L26.4039 52.3957C28.2561 53.2111 30.258 53.6309 32.2818 53.6282H32.5178C34.8257 53.6257 37.1006 53.08 39.1585 52.0352L57.1337 42.881C57.1512 42.8718 57.1687 42.8621 57.1858 42.852C57.728 42.5233 58.1786 42.063 58.4956 41.5138C58.8126 40.9645 58.9858 40.3442 58.9992 39.7102C59.0126 39.0762 58.8657 38.4491 58.5721 37.887C58.2785 37.3249 57.8478 36.846 57.3199 36.4947ZM28.8662 16.9413C28.8682 16.4689 29.0553 16.016 29.3873 15.68C29.7193 15.3439 30.1698 15.1513 30.6422 15.1436C30.7781 15.1418 30.9114 15.1056 31.0296 15.0385C31.1478 14.9714 31.2472 14.8755 31.3185 14.7597C31.3897 14.6439 31.4306 14.512 31.4373 14.3762C31.4439 14.2405 31.4162 14.1052 31.3567 13.983C31.2356 13.7383 31.1726 13.4691 31.1723 13.1962C31.1729 12.7189 31.3628 12.2613 31.7003 11.9238C32.0378 11.5862 32.4954 11.3964 32.9727 11.3957H33.9928C34.1259 11.3958 34.257 11.3628 34.3744 11.2999C34.4917 11.2369 34.5917 11.1458 34.6653 11.0348C35.4421 9.96599 35.9912 8.74903 36.2785 7.45934C36.8988 7.81775 37.441 8.29675 37.8732 8.86808C38.3054 9.43942 38.6187 10.0915 38.7948 10.7859C38.8386 10.9605 38.9395 11.1155 39.0815 11.2262C39.2235 11.3368 39.3984 11.3968 39.5784 11.3967H39.855C40.3323 11.3973 40.7899 11.5872 41.1274 11.9247C41.4649 12.2622 41.6548 12.7198 41.6554 13.1971C41.6535 13.3242 41.6381 13.4508 41.6093 13.5746H36.1836C35.9697 13.5746 35.7645 13.6596 35.6132 13.8109C35.4619 13.9621 35.377 14.1673 35.377 14.3812C35.377 14.5952 35.4619 14.8003 35.6132 14.9516C35.7645 15.1029 35.9697 15.1879 36.1836 15.1879H42.0781C42.3534 15.2461 42.6113 15.3682 42.8307 15.5445C43.0501 15.7208 43.2249 15.9462 43.3411 16.2026C43.4572 16.459 43.5114 16.7391 43.4992 17.0203C43.487 17.3015 43.4088 17.5758 43.271 17.8212H29.0958C28.9453 17.5524 28.8663 17.2494 28.8662 16.9413ZM26.5758 19.4327H45.7914V22.1711H26.5758V19.4327ZM22.8164 25.2806C22.8169 24.8834 22.9749 24.5027 23.2557 24.2218C23.5365 23.941 23.9173 23.783 24.3145 23.7825H48.0527C48.4499 23.783 48.8306 23.941 49.1115 24.2218C49.3923 24.5027 49.5503 24.8834 49.5508 25.2806V37.9259L46.5547 39.1797V27.5853C46.5546 27.3714 46.4695 27.1663 46.3183 27.015C46.167 26.8638 45.9619 26.7787 45.748 26.7786H26.6191C26.4052 26.7787 26.2001 26.8638 26.0489 27.015C25.8976 27.1663 25.8126 27.3714 25.8125 27.5853V36.8934C25.4812 36.716 25.1778 36.4906 24.9123 36.2246L22.8164 34.1287V25.2806ZM27.4258 37.3299V28.3937H44.9414V39.8573L39.9863 41.9315V41.8347C39.9855 40.6429 39.5118 39.5001 38.6692 38.6571C37.8266 37.8142 36.684 37.34 35.4922 37.3387H27.6014C27.5424 37.3387 27.4843 37.3327 27.4258 37.3299ZM7.83594 50.9797H1.61328V29.9863H7.83594V50.9797ZM56.3727 41.4576L38.4293 50.5953C36.598 51.5248 34.5737 52.0104 32.5201 52.0126H32.2841C30.4835 52.015 28.7023 51.6415 27.0543 50.9161L18.4158 47.1276C18.3142 47.0828 18.2043 47.0595 18.0932 47.0594H9.44922V32.6141H17.4456C17.9451 32.6129 18.4399 32.7107 18.9014 32.902C19.3629 33.0932 19.7819 33.374 20.1342 33.7282L23.7719 37.3654C24.2736 37.87 24.8704 38.2701 25.5277 38.5424C26.185 38.8147 26.8899 38.9539 27.6014 38.952H35.4922C36.256 38.9528 36.9882 39.2566 37.5283 39.7967C38.0684 40.3368 38.3722 41.069 38.373 41.8328V42.3348H24.9625C24.7486 42.3348 24.5434 42.4198 24.3922 42.5711C24.2409 42.7223 24.1559 42.9275 24.1559 43.1414C24.1559 43.3554 24.2409 43.5605 24.3922 43.7118C24.5434 43.8631 24.7486 43.9481 24.9625 43.9481H39.1797C39.2068 43.9468 39.2339 43.9442 39.2608 43.9402C39.2788 43.9402 39.2968 43.9379 39.3147 43.9347C39.323 43.9347 39.3309 43.9347 39.3392 43.9319C39.3853 43.9223 39.4305 43.9085 39.4742 43.8909C39.4798 43.8886 39.4858 43.8882 39.4913 43.8854H39.4945L46.0592 41.1377L50.6686 39.2087L54.4021 37.6461C54.7294 37.5092 55.0855 37.4553 55.4387 37.4891C55.7918 37.523 56.1312 37.6436 56.4265 37.8401C56.7218 38.0367 56.964 38.3032 57.1315 38.616C57.2991 38.9287 57.3867 39.278 57.3867 39.6328C57.3851 39.9977 57.2913 40.3564 57.114 40.6754C56.9367 40.9944 56.6817 41.2635 56.3727 41.4576Z" fill="#CEC4B1"></path> </g> <defs> <clipPath id="clip0"> <rect width="59" height="59" fill="white"></rect> </clipPath> </defs> </svg> 