<?xml version="1.0" encoding="UTF-8"?> <svg xmlns="http://www.w3.org/2000/svg" width="15" height="15" viewBox="0 0 15 15" fill="none"> <mask id="mask0" mask-type="alpha" maskUnits="userSpaceOnUse" x="0" y="0" width="15" height="15"> <rect width="15" height="15" fill="#EFE6D3"></rect> <path fill-rule="evenodd" clip-rule="evenodd" d="M1.926 0H13.0749C14.1341 0 15 0.866269 15 1.92555V13.0754C15 14.1343 14.1341 15 13.0749 15H1.926C0.8668 15 0 14.1343 0 13.0754V1.92555C0 0.866269 0.8668 0 1.926 0ZM10.9273 1.666C10.5554 1.666 10.252 1.97057 10.252 2.3423V3.95814C10.252 4.33001 10.5554 4.63389 10.9273 4.63389H12.6225C12.9937 4.63389 13.2977 4.33001 13.2977 3.95814V2.3423C13.2977 1.97057 12.9937 1.666 12.6225 1.666H10.9273ZM13.3042 6.3433H11.9844C12.1095 6.75208 12.1774 7.18317 12.1774 7.63135C12.1774 10.1257 10.0891 12.1487 7.5141 12.1487C4.93976 12.1487 2.8514 10.1257 2.8514 7.63135C2.8514 7.18317 2.9199 6.75208 3.04445 6.3433H1.66751V12.6804C1.66751 13.0085 1.93545 13.2755 2.26331 13.2755H12.7086C13.0368 13.2755 13.3042 13.0085 13.3042 12.6804V6.3433ZM7.51414 4.54866C5.85115 4.54866 4.50214 5.85517 4.50214 7.4683C4.50214 9.07978 5.85115 10.3873 7.51414 10.3873C9.17805 10.3873 10.5271 9.07978 10.5271 7.4683C10.5271 5.85512 9.17805 4.54866 7.51414 4.54866Z" fill="white"></path> </mask> <g mask="url(#mask0)"> </g> <path fill-rule="evenodd" clip-rule="evenodd" d="M1.926 0H13.0749C14.1341 0 15 0.866269 15 1.92555V13.0754C15 14.1343 14.1341 15 13.0749 15H1.926C0.8668 15 0 14.1343 0 13.0754V1.92555C0 0.866269 0.8668 0 1.926 0ZM10.9273 1.666C10.5554 1.666 10.252 1.97057 10.252 2.3423V3.95814C10.252 4.33001 10.5554 4.63389 10.9273 4.63389H12.6225C12.9937 4.63389 13.2977 4.33001 13.2977 3.95814V2.3423C13.2977 1.97057 12.9937 1.666 12.6225 1.666H10.9273ZM13.3042 6.3433H11.9844C12.1095 6.75208 12.1774 7.18317 12.1774 7.63135C12.1774 10.1257 10.0891 12.1487 7.5141 12.1487C4.93976 12.1487 2.8514 10.1257 2.8514 7.63135C2.8514 7.18317 2.9199 6.75208 3.04445 6.3433H1.66751V12.6804C1.66751 13.0085 1.93545 13.2755 2.26331 13.2755H12.7086C13.0368 13.2755 13.3042 13.0085 13.3042 12.6804V6.3433ZM7.51414 4.54866C5.85115 4.54866 4.50214 5.85517 4.50214 7.4683C4.50214 9.07978 5.85115 10.3873 7.51414 10.3873C9.17805 10.3873 10.5271 9.07978 10.5271 7.4683C10.5271 5.85512 9.17805 4.54866 7.51414 4.54866Z" fill="#EFE6D3"></path> </svg> 