<?xml version="1.0" encoding="UTF-8"?> <svg xmlns="http://www.w3.org/2000/svg" width="800" height="800" viewBox="0 0 800 800" fill="none"> <path d="M399.63 266.43C326.23 266.43 266.33 326.33 266.33 399.73C266.33 473.13 326.23 533.03 399.63 533.03C473.03 533.03 532.93 473.13 532.93 399.73C532.93 326.33 473.03 266.43 399.63 266.43ZM799.43 399.73C799.43 344.53 799.93 289.83 796.83 234.73C793.73 170.73 779.13 113.93 732.33 67.1297C685.43 20.2297 628.73 5.72974 564.73 2.62974C509.53 -0.470257 454.83 0.0297444 399.73 0.0297444C344.53 0.0297444 289.83 -0.470257 234.73 2.62974C170.73 5.72974 113.93 20.3297 67.1297 67.1297C20.2297 114.03 5.72974 170.73 2.62974 234.73C-0.470257 289.93 0.0297444 344.63 0.0297444 399.73C0.0297444 454.83 -0.470257 509.63 2.62974 564.73C5.72974 628.73 20.3297 685.53 67.1297 732.33C114.03 779.23 170.73 793.73 234.73 796.83C289.93 799.93 344.63 799.43 399.73 799.43C454.93 799.43 509.63 799.93 564.73 796.83C628.73 793.73 685.53 779.13 732.33 732.33C779.23 685.43 793.73 628.73 796.83 564.73C800.03 509.63 799.43 454.93 799.43 399.73V399.73ZM399.63 604.83C286.13 604.83 194.53 513.23 194.53 399.73C194.53 286.23 286.13 194.63 399.63 194.63C513.13 194.63 604.73 286.23 604.73 399.73C604.73 513.23 513.13 604.83 399.63 604.83ZM613.13 234.13C586.63 234.13 565.23 212.73 565.23 186.23C565.23 159.73 586.63 138.33 613.13 138.33C639.63 138.33 661.03 159.73 661.03 186.23C661.038 192.522 659.804 198.755 657.4 204.57C654.995 210.385 651.467 215.668 647.018 220.118C642.568 224.567 637.285 228.095 631.47 230.5C625.655 232.904 619.422 234.138 613.13 234.13V234.13Z" fill="#EFE6D3"></path> </svg> 