<?xml version="1.0" encoding="UTF-8"?> <svg xmlns="http://www.w3.org/2000/svg" width="52" height="52" viewBox="0 0 52 52" fill="none"> <g clip-path="url(#clip0)"> <path d="M44.3603 7.57831C39.4511 2.69022 32.9333 0 26.0013 0H25.9644C22.4295 0.00476074 18.9994 0.712128 15.7684 2.10187C12.6529 3.44241 9.86075 5.35464 7.46927 7.78619C2.54944 12.7881 -0.101894 19.3846 0.00403209 26.3598C0.0679054 30.5949 1.18271 34.7875 3.22705 38.4839C3.26514 38.5529 3.27427 38.6306 3.25205 38.6973L0.261509 47.653C-0.122524 48.8036 0.153996 50.0683 0.983555 50.9538C1.61713 51.6306 2.49271 52 3.39447 52C3.67496 52 3.95783 51.9643 4.23633 51.8913L14.3446 49.2356C14.4041 49.2201 14.4684 49.2269 14.5255 49.255C18.1191 51.0233 21.98 51.9199 26.0005 51.9199C32.94 51.9199 39.4734 49.2043 44.3976 44.2733C49.3106 39.3527 52.0108 32.8356 52.0005 25.9218C51.9909 18.989 49.2773 12.4743 44.3603 7.57831ZM42.2417 42.1203C37.8936 46.4748 32.1256 48.873 26.0009 48.873C22.4505 48.873 19.0422 48.0819 15.8708 46.5212C15.1563 46.1697 14.3394 46.0868 13.5706 46.2887L3.46271 48.944C3.36313 48.9702 3.27744 48.9456 3.20722 48.871C3.10407 48.7607 3.13977 48.6536 3.15168 48.6183L6.14222 39.6621C6.43381 38.7889 6.34296 37.8217 5.89307 37.0088C4.09034 33.7489 3.10724 30.0506 3.05051 26.3134C2.95688 20.1602 5.29758 14.339 9.64136 9.92258C13.9939 5.49747 19.7925 3.0556 25.9687 3.04688H26.0009C32.1212 3.04688 37.8769 5.42209 42.2104 9.7373C46.5502 14.0585 48.9453 19.8079 48.954 25.9262C48.9627 32.0255 46.5788 37.7765 42.2417 42.1203Z" fill="#CEC4B1"></path> <path d="M34.089 17.9114C33.4939 17.3167 32.5294 17.3167 31.9343 17.9114L26.0001 23.8464L20.0654 17.9114C19.4707 17.3167 18.5063 17.3167 17.9112 17.9114C17.3161 18.5064 17.3161 19.4713 17.9112 20.066L23.8454 26.0006L17.9112 31.9353C17.3161 32.5304 17.3161 33.4952 17.9112 34.0899C18.2087 34.3875 18.5983 34.5363 18.9883 34.5363C19.3783 34.5363 19.7682 34.3875 20.0654 34.0899L26.0001 28.1553L31.9347 34.0899C32.2319 34.3875 32.6219 34.5363 33.0118 34.5363C33.4014 34.5363 33.7914 34.3875 34.089 34.0899C34.6841 33.4949 34.6841 32.5304 34.089 31.9353L28.1543 26.0006L34.089 20.066C34.6841 19.4713 34.6841 18.5064 34.089 17.9114Z" fill="#CEC4B1"></path> </g> <defs> <clipPath id="clip0"> <rect width="52" height="52" fill="white"></rect> </clipPath> </defs> </svg> 