<?xml version="1.0" encoding="UTF-8"?> <svg xmlns="http://www.w3.org/2000/svg" width="51" height="51" viewBox="0 0 51 51" fill="none"> <g clip-path="url(#clip0)"> <path d="M43.5072 7.43257C38.6925 2.63848 32.3 0 25.5012 0H25.4651C21.9982 0.00466919 18.634 0.698433 15.4652 2.06145C12.4096 3.37621 9.67114 5.25167 7.32565 7.63646C2.50043 12.5422 -0.0999162 19.0118 0.00397333 25.8529C0.0666183 30.0065 1.15999 34.1185 3.16463 37.7434C3.20237 37.8115 3.21132 37.8877 3.18953 37.9531L0.256499 46.7366C-0.120149 47.865 0.151053 49.1055 0.964659 49.9739C1.58605 50.6377 2.44479 51 3.32921 51C3.60431 51 3.88174 50.965 4.15488 50.8934L14.0687 48.2891C14.1271 48.2736 14.1901 48.2802 14.2462 48.3078C17.7706 50.0424 21.5573 50.9218 25.5005 50.9218C32.3066 50.9218 38.7143 48.258 43.5438 43.4219C48.3624 38.5963 51.0106 32.2042 51.0005 25.4233C50.9911 18.6238 48.3297 12.2344 43.5072 7.43257ZM41.4294 41.3103C37.1649 45.581 31.5078 47.9331 25.5009 47.9331C22.0188 47.9331 18.6761 47.1573 15.5656 45.6265C14.8648 45.2814 14.0637 45.2005 13.3096 45.3985L3.39614 48.0028C3.29848 48.0285 3.21443 48.0043 3.14556 47.9312C3.04439 47.823 3.07941 47.7179 3.09109 47.6833L6.02412 38.899C6.30971 38.043 6.221 37.0948 5.77976 36.2971C4.01169 33.0999 3.04751 29.4723 2.99187 25.8074C2.90004 19.7725 5.19572 14.0632 9.45597 9.73176C13.7248 5.39175 19.4118 2.99684 25.4693 2.98828H25.5009C31.5035 2.98828 37.1482 5.31782 41.3987 9.55005C45.655 13.7881 48.004 19.4269 48.0126 25.4276C48.0211 31.4096 45.683 37.05 41.4294 41.3103Z" fill="#CEC4B1"></path> <path d="M35.2024 17.0657L22.1582 30.1103C21.7964 30.4721 21.208 30.4717 20.8466 30.1103L15.7976 25.0613C15.2144 24.4777 14.2681 24.4777 13.6848 25.0613C13.1012 25.6446 13.1012 26.5909 13.6848 27.1745L18.7338 32.2235C19.4972 32.9869 20.4999 33.3686 21.5026 33.3686C22.5053 33.3686 23.508 32.9869 24.271 32.2235L37.3156 19.1785C37.8992 18.5953 37.8992 17.649 37.3156 17.0653C36.7323 16.4821 35.786 16.4821 35.2024 17.0657Z" fill="#CEC4B1"></path> </g> <defs> <clipPath id="clip0"> <rect width="51" height="51" fill="white"></rect> </clipPath> </defs> </svg> 