<?xml version="1.0" encoding="UTF-8"?> <svg xmlns="http://www.w3.org/2000/svg" width="15" height="15" viewBox="0 0 15 15" fill="none"> <path fill-rule="evenodd" clip-rule="evenodd" d="M14.9739 2.49876C14.9739 1.18544 13.7897 0 12.4764 0H2.49501C1.18481 0 0 1.18544 0 2.49876V12.4764C0 13.7909 1.18481 14.9739 2.49501 14.9739H7.48691V9.31684H5.65823V6.82246H7.48691V5.84915C7.48691 4.17394 8.74598 2.66286 10.2945 2.66286H12.3122V5.16038H10.2945C10.0749 5.16038 9.81473 5.42678 9.81473 5.82858V6.82309H12.3129V9.31748H9.81473V14.9739H12.4764C13.7897 14.9739 14.9739 13.7909 14.9739 12.4764V2.49876Z" fill="#EFE6D3"></path> <mask id="mask0" mask-type="alpha" maskUnits="userSpaceOnUse" x="0" y="0" width="15" height="15"> <rect width="15" height="15" fill="#EFE6D3"></rect> <rect width="15" height="15" fill="#EFE6D3"></rect> <path fill-rule="evenodd" clip-rule="evenodd" d="M14.9739 2.49876C14.9739 1.18544 13.7897 0 12.4764 0H2.49501C1.18481 0 0 1.18544 0 2.49876V12.4764C0 13.7909 1.18481 14.9739 2.49501 14.9739H7.48691V9.31684H5.65823V6.82246H7.48691V5.84915C7.48691 4.17394 8.74598 2.66286 10.2945 2.66286H12.3122V5.16038H10.2945C10.0749 5.16038 9.81473 5.42678 9.81473 5.82858V6.82309H12.3129V9.31748H9.81473V14.9739H12.4764C13.7897 14.9739 14.9739 13.7909 14.9739 12.4764V2.49876Z" fill="#EFE6D3"></path> </mask> <g mask="url(#mask0)"> </g> </svg> 