<?xml version="1.0" encoding="UTF-8"?> <svg xmlns="http://www.w3.org/2000/svg" width="231" height="231" viewBox="0 0 231 231" fill="none"> <path fill-rule="evenodd" clip-rule="evenodd" d="M231 115.5C231 179.285 179.285 231 115.5 231C51.7151 231 0 179.285 0 115.5C0 51.7151 51.7151 0 115.5 0C179.285 0 231 51.7151 231 115.5ZM119.639 85.2679C108.406 89.936 85.9513 99.6091 52.283 114.278C46.816 116.453 43.9478 118.58 43.6879 120.659C43.2451 124.182 47.6534 125.568 53.6401 127.445C54.4582 127.705 55.3052 127.964 56.1715 128.253C62.0716 130.168 70.0026 132.411 74.1221 132.498C77.8663 132.575 82.0435 131.035 86.6539 127.878C118.108 106.635 134.346 95.9035 135.366 95.6725C136.088 95.5089 137.089 95.2971 137.763 95.9035C138.436 96.5002 138.369 97.636 138.302 97.944C137.859 99.8016 120.592 115.866 111.64 124.182C108.849 126.771 106.876 128.609 106.472 129.033C105.567 129.966 104.643 130.862 103.757 131.718C98.2712 136.993 94.171 140.958 103.988 147.426C108.705 150.535 112.478 153.105 116.241 155.665C120.351 158.466 124.451 161.257 129.764 164.741C131.112 165.627 132.402 166.541 133.662 167.436C138.446 170.853 142.748 173.914 148.061 173.433C151.141 173.144 154.337 170.247 155.954 161.594C159.775 141.131 167.302 96.8179 169.044 78.5496C169.15 77.0329 169.085 75.509 168.851 74.0066C168.711 72.7932 168.12 71.6767 167.196 70.8785C165.82 69.7524 163.683 69.5117 162.72 69.531C158.379 69.608 151.719 71.9276 119.639 85.2679V85.2679Z" fill="#EFE6D3"></path> </svg> 