<?xml version="1.0" encoding="UTF-8"?> <svg xmlns="http://www.w3.org/2000/svg" width="255" height="255" viewBox="0 0 255 255" fill="none"> <path d="M224.678 196.537C213.246 206.654 196.676 213.91 174.971 218.305C153.265 222.7 130.897 223.985 107.865 222.161L64.1228 255V213.951C49.7076 209.473 38.4405 203.668 30.3216 196.537C20.7115 188.078 13.2554 175.929 7.95322 160.09C2.65107 144.251 0 128.08 0 111.578C0 95.0756 2.65107 78.9049 7.95322 63.0659C13.2554 47.2268 20.7529 35.0366 30.4459 26.4951C40.1389 17.9537 54.0156 11.4024 72.076 6.84146C90.1365 2.28049 108.611 0 127.5 0C146.389 0 164.864 2.28049 182.924 6.84146C200.984 11.4024 214.861 17.9537 224.554 26.4951C234.247 35.0366 241.745 47.2268 247.047 63.0659C252.349 78.9049 255 95.0756 255 111.578C255 128.08 252.349 144.251 247.047 160.09C241.745 175.929 234.289 188.078 224.678 196.537ZM158.816 135.585L174.971 138.322C173.645 118.42 165.982 101.42 151.981 87.322C137.98 73.2244 121.038 65.5122 101.155 64.1854L103.889 80.3561C118.138 82.1805 130.4 88.2341 140.673 98.5171C150.945 108.8 156.993 121.156 158.816 135.585ZM106.623 97.0244L109.605 114.937C116.233 118.254 121.121 123.146 124.269 129.615L142.164 132.6C140.175 123.81 135.95 116.222 129.488 109.837C123.026 103.451 115.404 99.1805 106.623 97.0244ZM80.0292 111.702V95.7805C80.0292 92.961 78.9937 90.1415 76.9225 87.322C74.8514 84.5024 72.6559 82.4707 70.3363 81.2268C68.0166 79.9829 66.2768 79.8585 65.117 80.8537L53.6842 92.5463C47.2222 99.0146 46.2695 109.09 50.826 122.773C55.3826 136.456 64.0814 149.724 76.9225 162.578C89.7636 175.432 103.019 184.139 116.689 188.7C130.358 193.261 140.341 192.307 146.637 185.839L158.319 174.146C159.479 173.151 159.437 171.451 158.194 169.046C156.952 166.641 154.922 164.444 152.105 162.454C149.289 160.463 146.472 159.468 143.655 159.468H127.749L118.553 167.429C111.262 165.439 102.191 159.012 91.3377 148.149C80.4849 137.285 74.0643 128.122 72.076 120.659L80.0292 111.702ZM95.9357 32.0927L98.4211 48.2634C114.99 48.5951 130.317 52.9488 144.401 61.3244C158.484 69.7 169.669 80.8951 177.953 94.9098C186.238 108.924 190.629 124.224 191.126 140.81L207.281 143.546C207.281 128.454 204.34 114.024 198.458 100.259C192.576 86.4927 184.664 74.6341 174.722 64.6829C164.781 54.7317 152.934 46.8122 139.181 40.9244C125.429 35.0366 111.014 32.0927 95.9357 32.0927Z" fill="#EFE6D3"></path> </svg> 